<svg xmlns="http://www.w3.org/2000/svg" xmlns:xlink="http://www.w3.org/1999/xlink" width="225" zoomAndPan="magnify" viewBox="0 0 168.75 56.249996" height="75" preserveAspectRatio="xMidYMid meet" version="1.0"><defs><g/><clipPath id="888e25787c"><path d="M 9 23 L 28 23 L 28 39.199219 L 9 39.199219 Z M 9 23 " clip-rule="nonzero"/></clipPath><clipPath id="53ce176e98"><path d="M 18 11.074219 L 32.527344 11.074219 L 32.527344 31 L 18 31 Z M 18 11.074219 " clip-rule="nonzero"/></clipPath><clipPath id="2aff358ee8"><path d="M 3.660156 11.074219 L 22 11.074219 L 22 31 L 3.660156 31 Z M 3.660156 11.074219 " clip-rule="nonzero"/></clipPath></defs><g clip-path="url(#888e25787c)"><path fill="#ffffff" d="M 9.304688 34.085938 L 9.378906 23.796875 L 11.652344 25.132812 L 11.597656 32.78125 L 15.4375 35.035156 C 14.789062 33.636719 15.3125 31.949219 16.675781 31.175781 C 18.113281 30.359375 19.941406 30.863281 20.757812 32.300781 C 21.28125 33.21875 21.261719 34.300781 20.800781 35.171875 L 24.847656 32.875 L 24.902344 25.222656 L 27.195312 23.921875 L 27.121094 34.207031 L 18.179688 39.289062 L 9.304688 34.085938 " fill-opacity="1" fill-rule="nonzero"/></g><g clip-path="url(#53ce176e98)"><path fill="#ffffff" d="M 25.996094 16.570312 C 26.886719 15.636719 27.101562 14.195312 26.429688 13.019531 C 25.605469 11.582031 23.777344 11.085938 22.34375 11.90625 C 20.910156 12.726562 20.410156 14.554688 21.230469 15.992188 C 21.371094 16.238281 21.542969 16.457031 21.738281 16.644531 L 18.710938 18.375 L 20.992188 19.703125 L 23.9375 18.015625 L 30.550781 21.867188 L 30.519531 29.515625 L 32.796875 30.84375 L 32.839844 20.558594 L 25.996094 16.570312 " fill-opacity="1" fill-rule="nonzero"/></g><path fill="#ffffff" d="M 15.476562 20.226562 L 15.019531 20.488281 L 14.980469 30.777344 L 17.269531 29.464844 L 17.300781 21.816406 L 17.757812 21.554688 L 15.476562 20.226562 " fill-opacity="1" fill-rule="nonzero"/><g clip-path="url(#2aff358ee8)"><path fill="#ffffff" d="M 15.109375 13.019531 C 15.78125 14.195312 15.566406 15.636719 14.675781 16.570312 L 21.519531 20.558594 L 21.480469 30.84375 L 19.199219 29.515625 L 19.230469 21.867188 L 12.621094 18.015625 L 5.980469 21.816406 L 5.953125 29.464844 L 3.664062 30.777344 L 3.703125 20.488281 L 10.417969 16.644531 C 10.226562 16.457031 10.054688 16.238281 9.914062 15.992188 C 9.089844 14.554688 9.589844 12.726562 11.023438 11.90625 C 12.460938 11.085938 14.289062 11.582031 15.109375 13.019531 " fill-opacity="1" fill-rule="nonzero"/></g><g fill="#ffffff" fill-opacity="1"><g transform="translate(36.28297, 33.234588)"><g><path d="M 20.585938 -0.886719 C 19.503906 -3.332031 18.957031 -6.546875 18.957031 -10.535156 C 18.957031 -12.269531 19.15625 -13.472656 19.546875 -14.140625 C 18.695312 -14.785156 17.832031 -15.113281 16.949219 -15.113281 C 16.335938 -15.113281 15.8125 -14.90625 15.40625 -14.578125 C 15.199219 -14.414062 14.992188 -14.171875 14.785156 -13.867188 C 14.347656 -13.242188 14.0625 -12.707031 13.570312 -11.691406 C 12.96875 -10.46875 12.183594 -8.785156 11.832031 -8.042969 C 11.660156 -7.671875 11.484375 -7.300781 11.296875 -6.9375 C 11.113281 -6.578125 10.96875 -6.328125 10.871094 -6.183594 C 10.773438 -6.042969 10.6875 -5.976562 10.621094 -5.976562 C 10.523438 -5.976562 10.335938 -6.238281 10.054688 -6.773438 C 9.867188 -7.113281 9.082031 -8.730469 7.683594 -11.636719 C 7.003906 -13.035156 6.71875 -13.679688 5.988281 -14.457031 C 5.550781 -14.90625 4.90625 -15.113281 4.183594 -15.113281 C 3.277344 -15.113281 2.449219 -14.804688 1.695312 -14.183594 C 2.011719 -13.558594 2.175781 -12.816406 2.175781 -11.933594 C 2.175781 -7.015625 1.628906 -3.332031 0.546875 -0.886719 C 1.605469 -0.285156 2.546875 0.0234375 3.355469 0.0234375 C 4.109375 0.0234375 4.511719 -0.1875 4.773438 -0.765625 C 4.929688 -1.09375 5.015625 -1.921875 5.058594 -2.785156 C 5.082031 -3.332031 5.101562 -3.890625 5.113281 -4.46875 C 5.148438 -5.617188 5.210938 -7.734375 5.300781 -9.441406 C 6.601562 -6.90625 7.945312 -4.03125 8.597656 -2.632812 C 8.925781 -1.933594 9.167969 -1.464844 9.308594 -1.222656 C 9.636719 -0.730469 10.042969 -0.480469 10.535156 -0.480469 C 11.023438 -0.480469 11.441406 -0.765625 11.777344 -1.332031 C 11.921875 -1.574219 12.160156 -2.03125 12.480469 -2.722656 C 13.125 -4.074219 14.46875 -6.949219 15.722656 -9.441406 C 15.8125 -7.769531 15.886719 -5.59375 15.929688 -4.46875 C 15.941406 -3.910156 15.964844 -3.355469 15.996094 -2.820312 C 16.03125 -2.273438 16.0625 -1.847656 16.09375 -1.539062 C 16.128906 -1.222656 16.183594 -0.996094 16.238281 -0.839844 C 16.46875 -0.21875 16.902344 0.0429688 17.691406 0.0429688 C 18.53125 0.0429688 19.492188 -0.261719 20.585938 -0.886719 Z M 20.585938 -0.886719 "/></g></g></g><g fill="#ffffff" fill-opacity="1"><g transform="translate(57.498811, 33.234588)"><g><path d="M 9.582031 -2.949219 C 8.9375 -2.4375 8.042969 -2.175781 6.90625 -2.175781 C 4.929688 -2.175781 3.847656 -3.039062 3.847656 -4.601562 L 3.847656 -4.644531 C 4.742188 -4.523438 5.703125 -4.457031 6.730469 -4.457031 C 9.757812 -4.457031 10.960938 -5.058594 10.960938 -6.925781 C 10.960938 -9.113281 9.125 -10.6875 6.335938 -10.6875 C 2.960938 -10.6875 0.675781 -8.445312 0.675781 -5.167969 C 0.675781 -1.769531 2.796875 0.132812 6.632812 0.132812 C 8.949219 0.132812 10.261719 -0.546875 10.261719 -1.605469 C 10.261719 -2.011719 10.03125 -2.457031 9.582031 -2.949219 Z M 3.988281 -6.316406 C 4.195312 -7.757812 4.972656 -8.566406 6.140625 -8.566406 C 7.136719 -8.566406 7.789062 -7.933594 7.789062 -6.972656 C 7.789062 -6.304688 7.375 -6.140625 6.292969 -6.140625 C 5.824219 -6.140625 5.046875 -6.195312 3.988281 -6.316406 Z M 3.988281 -6.316406 "/></g></g></g><g fill="#ffffff" fill-opacity="1"><g transform="translate(68.958861, 33.234588)"><g><path d="M 18.828125 -0.589844 C 18.464844 -1.191406 18.28125 -2.292969 18.28125 -3.902344 C 18.28125 -4.175781 18.292969 -4.589844 18.324219 -5.15625 C 18.355469 -5.726562 18.367188 -6.164062 18.367188 -6.457031 C 18.367188 -9.199219 17.132812 -10.597656 14.742188 -10.597656 C 13.460938 -10.597656 12.25 -10.0625 11.078125 -8.992188 C 10.347656 -10.128906 9.453125 -10.597656 8.085938 -10.597656 C 6.894531 -10.597656 5.746094 -10.128906 4.664062 -9.179688 C 4.566406 -10.152344 3.957031 -10.597656 2.742188 -10.597656 C 2.21875 -10.597656 1.640625 -10.5 1.015625 -10.304688 C 1.355469 -9.507812 1.519531 -8.335938 1.519531 -6.796875 C 1.519531 -5.957031 1.476562 -4.949219 1.398438 -3.792969 C 1.3125 -2.632812 1.265625 -1.902344 1.265625 -1.585938 C 1.265625 -0.4375 1.683594 0.0234375 2.742188 0.0234375 C 3.5625 0.0234375 4.371094 -0.175781 5.148438 -0.566406 C 4.808594 -1.257812 4.644531 -2.492188 4.644531 -4.261719 C 4.644531 -5.101562 4.675781 -6.128906 4.730469 -7.363281 C 5.398438 -7.835938 6.011719 -8.0625 6.566406 -8.0625 C 7.84375 -8.0625 8.25 -7.246094 8.25 -5.234375 C 8.25 -4.710938 8.226562 -4.054688 8.195312 -3.257812 C 8.152344 -2.457031 8.128906 -1.921875 8.128906 -1.648438 C 8.128906 -0.425781 8.5 0.0234375 9.605469 0.0234375 C 10.425781 0.0234375 11.234375 -0.175781 12.03125 -0.566406 C 11.59375 -1.53125 11.507812 -2.492188 11.507812 -4.03125 C 11.507812 -4.765625 11.527344 -5.867188 11.570312 -7.363281 C 12.28125 -7.835938 12.859375 -8.0625 13.320312 -8.0625 C 14.597656 -8.0625 15.066406 -7.253906 15.066406 -5.34375 C 15.066406 -4.894531 15.046875 -4.25 15.003906 -3.398438 C 14.949219 -2.535156 14.925781 -1.902344 14.925781 -1.496094 C 14.925781 -0.414062 15.339844 0 16.402344 0 C 17.230469 0 18.039062 -0.1875 18.828125 -0.566406 Z M 18.828125 -0.589844 "/></g></g></g><g fill="#ffffff" fill-opacity="1"><g transform="translate(88.546917, 33.234588)"><g><path d="M 4.414062 -9.332031 C 4.480469 -10.542969 4.589844 -12.152344 4.632812 -12.9375 C 4.65625 -13.296875 4.664062 -13.539062 4.664062 -13.660156 C 4.664062 -14.882812 4.195312 -15.40625 3.101562 -15.40625 C 2.394531 -15.40625 1.617188 -15.199219 0.765625 -14.796875 C 1.246094 -13.734375 1.398438 -11.976562 1.398438 -9.058594 C 1.398438 -5.746094 1.289062 -3.09375 1.058594 -1.09375 C 2.425781 -0.273438 3.964844 0.132812 5.660156 0.132812 C 9.507812 0.132812 12.117188 -2.371094 12.117188 -5.957031 C 12.117188 -8.707031 10.25 -10.597656 7.582031 -10.597656 C 6.382812 -10.597656 5.320312 -10.171875 4.414062 -9.332031 Z M 4.394531 -3.058594 C 4.359375 -3.398438 4.347656 -3.921875 4.347656 -4.621094 C 4.347656 -5.539062 4.382812 -6.445312 4.4375 -7.34375 C 5.125 -7.769531 5.8125 -7.976562 6.5 -7.976562 C 7.855469 -7.976562 8.785156 -6.992188 8.785156 -5.507812 C 8.785156 -3.792969 7.617188 -2.558594 6.042969 -2.558594 C 5.464844 -2.558594 4.90625 -2.722656 4.394531 -3.058594 Z M 4.394531 -3.058594 "/></g></g></g><g fill="#ffffff" fill-opacity="1"><g transform="translate(101.339785, 33.234588)"><g><path d="M 9.582031 -2.949219 C 8.9375 -2.4375 8.042969 -2.175781 6.90625 -2.175781 C 4.929688 -2.175781 3.847656 -3.039062 3.847656 -4.601562 L 3.847656 -4.644531 C 4.742188 -4.523438 5.703125 -4.457031 6.730469 -4.457031 C 9.757812 -4.457031 10.960938 -5.058594 10.960938 -6.925781 C 10.960938 -9.113281 9.125 -10.6875 6.335938 -10.6875 C 2.960938 -10.6875 0.675781 -8.445312 0.675781 -5.167969 C 0.675781 -1.769531 2.796875 0.132812 6.632812 0.132812 C 8.949219 0.132812 10.261719 -0.546875 10.261719 -1.605469 C 10.261719 -2.011719 10.03125 -2.457031 9.582031 -2.949219 Z M 3.988281 -6.316406 C 4.195312 -7.757812 4.972656 -8.566406 6.140625 -8.566406 C 7.136719 -8.566406 7.789062 -7.933594 7.789062 -6.972656 C 7.789062 -6.304688 7.375 -6.140625 6.292969 -6.140625 C 5.824219 -6.140625 5.046875 -6.195312 3.988281 -6.316406 Z M 3.988281 -6.316406 "/></g></g></g><g fill="#ffffff" fill-opacity="1"><g transform="translate(112.799835, 33.234588)"><g><path d="M 4.621094 -7.933594 C 4.664062 -8.316406 4.6875 -8.621094 4.6875 -8.863281 C 4.6875 -10.085938 4.183594 -10.597656 2.972656 -10.597656 C 2.414062 -10.597656 1.769531 -10.488281 1.015625 -10.261719 C 1.355469 -9.40625 1.519531 -8.335938 1.519531 -7.046875 C 1.519531 -6.066406 1.484375 -4.960938 1.410156 -3.726562 C 1.332031 -2.492188 1.289062 -1.757812 1.289062 -1.519531 C 1.289062 -0.425781 1.726562 0.0234375 2.832031 0.0234375 C 3.628906 0.0234375 4.492188 -0.195312 5.429688 -0.632812 C 4.984375 -1.386719 4.753906 -2.566406 4.753906 -4.183594 C 4.753906 -4.828125 4.773438 -5.417969 4.828125 -5.957031 C 5.410156 -7.058594 6.019531 -7.617188 6.675781 -7.617188 C 7.234375 -7.617188 7.5625 -7.300781 7.660156 -6.675781 C 8.839844 -7.246094 9.351562 -7.910156 9.351562 -8.882812 C 9.351562 -9.921875 8.664062 -10.621094 7.703125 -10.621094 C 6.511719 -10.621094 5.59375 -9.769531 4.664062 -7.933594 Z M 4.621094 -7.933594 "/></g></g></g><g fill="#ffffff" fill-opacity="1"><g transform="translate(122.129561, 33.234588)"><g><path d="M 10.980469 -7.300781 C 11.496094 -6.644531 11.617188 -5.910156 11.617188 -4.730469 C 11.617188 -4.238281 11.582031 -3.746094 11.527344 -3.257812 C 10.851562 -3.046875 10.160156 -2.9375 9.472656 -2.9375 C 6.578125 -2.9375 4.753906 -4.675781 4.753906 -7.386719 C 4.753906 -10.226562 6.917969 -12.226562 10.03125 -12.226562 C 10.742188 -12.226562 11.453125 -12.050781 12.183594 -11.714844 C 13.078125 -13.15625 13.242188 -14.433594 12.292969 -14.96875 C 11.867188 -15.210938 11.167969 -15.332031 10.214844 -15.332031 C 7.714844 -15.332031 5.386719 -14.5 3.671875 -13.046875 C 1.695312 -11.363281 0.699219 -9.308594 0.699219 -6.882812 C 0.699219 -2.644531 4.074219 0.230469 9.332031 0.230469 C 11.648438 0.230469 13.101562 -0.109375 14.0625 -1.027344 C 15.011719 -1.933594 15.363281 -3.257812 15.363281 -5.386719 C 15.363281 -7.253906 14.859375 -8 13.449219 -8 C 12.742188 -8 11.921875 -7.769531 10.980469 -7.300781 Z M 10.980469 -7.300781 "/></g></g></g><g fill="#ffffff" fill-opacity="1"><g transform="translate(138.167076, 33.234588)"><g><path d="M 5.320312 -0.589844 C 4.851562 -1.5625 4.730469 -3.265625 4.730469 -6.335938 C 4.730469 -7.703125 4.773438 -9.210938 4.851562 -10.863281 C 4.929688 -12.5 4.960938 -13.449219 4.960938 -13.722656 C 4.960938 -14.9375 4.535156 -15.40625 3.441406 -15.40625 C 2.644531 -15.40625 1.824219 -15.199219 0.972656 -14.796875 C 1.441406 -13.910156 1.585938 -12.488281 1.585938 -10.085938 C 1.585938 -8.5 1.539062 -6.820312 1.464844 -5.027344 C 1.375 -3.222656 1.332031 -2.21875 1.332031 -2.011719 C 1.332031 -0.480469 1.640625 0 2.851562 0 C 3.550781 0 4.371094 -0.195312 5.320312 -0.589844 Z M 5.320312 -0.589844 "/></g></g></g><g fill="#ffffff" fill-opacity="1"><g transform="translate(144.481575, 33.234588)"><g><path d="M 12.007812 -0.632812 C 11.648438 -1.300781 11.460938 -2.558594 11.460938 -4.394531 C 11.460938 -5.191406 11.484375 -6.074219 11.527344 -7.035156 C 11.570312 -8 11.59375 -8.554688 11.59375 -8.71875 C 11.59375 -10.085938 11.234375 -10.578125 10.054688 -10.578125 C 9.363281 -10.578125 8.535156 -10.359375 7.5625 -9.921875 C 8 -9.144531 8.21875 -7.527344 8.21875 -5.070312 C 8.21875 -4.796875 8.207031 -4.359375 8.171875 -3.78125 C 7.519531 -2.917969 6.796875 -2.492188 6.019531 -2.492188 C 4.839844 -2.492188 4.480469 -3.265625 4.480469 -5.234375 C 4.480469 -5.746094 4.511719 -6.425781 4.566406 -7.289062 C 4.621094 -8.140625 4.644531 -8.742188 4.644531 -9.101562 C 4.644531 -10.152344 4.195312 -10.578125 3.101562 -10.578125 C 2.316406 -10.578125 1.519531 -10.378906 0.699219 -9.988281 C 1.050781 -9.40625 1.222656 -8.371094 1.222656 -6.882812 C 1.222656 -6.492188 1.203125 -5.945312 1.167969 -5.246094 C 1.136719 -4.546875 1.113281 -4.054688 1.113281 -3.757812 C 1.113281 -1.136719 2.359375 0.230469 4.6875 0.230469 C 6.140625 0.230469 7.34375 -0.425781 8.292969 -1.75 L 8.292969 -1.496094 C 8.292969 -0.414062 8.699219 0.0234375 9.734375 0.0234375 C 10.414062 0.0234375 11.167969 -0.195312 12.007812 -0.632812 Z M 12.007812 -0.632812 "/></g></g></g><g fill="#ffffff" fill-opacity="1"><g transform="translate(157.274443, 33.234588)"><g><path d="M 5.277344 -10.074219 C 5.375 -11.265625 5.429688 -11.921875 5.429688 -12.03125 C 5.429688 -13.035156 4.960938 -13.496094 3.945312 -13.496094 C 3.277344 -13.496094 2.535156 -13.296875 1.695312 -12.894531 C 1.988281 -12.316406 2.128906 -11.527344 2.128906 -10.554688 C 2.128906 -10.5 2.128906 -10.402344 2.121094 -10.261719 C 2.109375 -10.117188 2.109375 -10.019531 2.109375 -9.945312 C 1.683594 -9.910156 1.398438 -9.898438 1.246094 -9.898438 C 0.929688 -9.898438 0.65625 -9.921875 0.425781 -9.964844 C 0.175781 -9.429688 0.0429688 -8.992188 0.0429688 -8.652344 C 0.0429688 -8.054688 0.371094 -7.835938 1.113281 -7.835938 C 1.367188 -7.835938 1.648438 -7.855469 1.988281 -7.898438 C 1.96875 -7.289062 1.921875 -6.46875 1.847656 -5.453125 C 1.769531 -4.425781 1.726562 -3.714844 1.726562 -3.3125 C 1.726562 -1.003906 2.765625 0.109375 4.917969 0.109375 C 6.609375 0.109375 7.582031 -0.511719 7.582031 -1.476562 C 7.582031 -1.859375 7.429688 -2.25 7.113281 -2.65625 C 6.828125 -2.4375 6.546875 -2.328125 6.25 -2.328125 C 5.410156 -2.328125 4.984375 -3.101562 4.984375 -4.664062 C 4.984375 -5.484375 5.039062 -6.589844 5.148438 -7.976562 C 5.5625 -7.988281 6.347656 -8.042969 6.4375 -8.042969 C 6.949219 -8.042969 7.355469 -7.988281 7.636719 -7.878906 C 8.019531 -8.457031 8.21875 -8.960938 8.21875 -9.398438 C 8.21875 -9.976562 7.933594 -10.195312 7.246094 -10.195312 C 7.082031 -10.195312 6.566406 -10.160156 6.128906 -10.128906 C 5.835938 -10.109375 5.550781 -10.085938 5.277344 -10.074219 Z M 5.277344 -10.074219 "/></g></g></g></svg>